<svg id="Layer_1" data-name="Layer 1" xmlns="http://www.w3.org/2000/svg" viewBox="0 0 400 429"><defs><style>.cls-1{fill:#fff;}.cls-2{fill:#48c148;}.cls-3{fill:#0e560e;}</style></defs><path class="cls-1" d="M95.47,291.57a18.4,18.4,0,0,1-7.69,7.28,27.06,27.06,0,0,1-12.88,2.78H65.42v22.53H50.13V261.38H74.9A28.32,28.32,0,0,1,87.6,264a17.9,17.9,0,0,1,7.78,7.16A20.78,20.78,0,0,1,98,281.59,20.23,20.23,0,0,1,95.47,291.57Zm-15.2-4.16a9,9,0,0,0,0-11.63c-1.44-1.37-3.61-2.06-6.53-2.06H65.42v15.74h8.32C76.66,289.46,78.83,288.78,80.27,287.41Z"/><path class="cls-1" d="M122,261.38v62.78H106.72V261.38Z"/><path class="cls-1" d="M135.58,276.09a28.69,28.69,0,0,1,11.22-11.35,32.51,32.51,0,0,1,16.32-4.07q11.17,0,19.14,5.9a28.31,28.31,0,0,1,10.64,16.1H176.09a13.55,13.55,0,0,0-5.32-6,15,15,0,0,0-7.83-2.06,14.59,14.59,0,0,0-11.44,4.92q-4.4,4.92-4.39,13.14t4.39,13.15a14.59,14.59,0,0,0,11.44,4.92,14.91,14.91,0,0,0,7.83-2.06,13.55,13.55,0,0,0,5.32-6H192.9a28.15,28.15,0,0,1-10.64,16.06q-8,5.85-19.14,5.85a32.51,32.51,0,0,1-16.32-4.07,28.78,28.78,0,0,1-11.22-11.31,36.08,36.08,0,0,1,0-33.14Z"/><path class="cls-1" d="M238.74,324.16l-21.11-27.72v27.72H202.34V261.38h15.29v27.55l20.93-27.55h18l-24.32,30.77,25.22,32Z"/><path class="cls-1" d="M281.93,312.36h20v11.8H266.64V261.38h15.29Z"/><path class="cls-1" d="M326.51,273.63v12.7H347v11.81H326.51v13.77h23.16v12.25H311.22V261.38h38.45v12.25Z"/><path class="cls-2" d="M56.89,351v7.72H70.42v5.43H56.89v10.65H50.13V345.61H72.21V351Z"/><path class="cls-2" d="M94.66,345.61h6.76v29.23H94.66Z"/><path class="cls-2" d="M152.89,345.61v29.23h-5.56l-14.57-17.75v17.75h-6.68V345.61h5.59l14.53,17.75V345.61Z"/><path class="cls-2" d="M197,368.58H183.39l-2.59,6.26h-6.93l13-29.23h6.68l13.07,29.23h-7.1Zm-2.13-5.14-4.64-11.19-4.63,11.19Z"/><path class="cls-2" d="M254.39,345.61v29.23h-5.55l-14.57-17.75v17.75h-6.68V345.61h5.59l14.53,17.75V345.61Z"/><path class="cls-2" d="M277.31,360.22c0-8.81,6.77-15.11,15.87-15.11,5.05,0,9.27,1.84,12,5.18l-4.35,4a9.38,9.38,0,0,0-7.35-3.43,9.36,9.36,0,0,0,0,18.71,9.3,9.3,0,0,0,7.35-3.47l4.35,4c-2.76,3.38-7,5.22-12.07,5.22C284.08,375.34,277.31,369,277.31,360.22Z"/><path class="cls-2" d="M349.87,369.41v5.43H327.24V345.61h22.09V351H334v6.35h13.57v5.26H334v6.76Z"/><path class="cls-3" d="M171.53,100.17h.15a37.26,37.26,0,0,1-34.53-23.28,37.09,37.09,0,0,0-2.75,14V193.43a37.28,37.28,0,0,0,37.28,37.28h0A37.28,37.28,0,0,0,209,193.43V137.6A37.43,37.43,0,0,0,171.53,100.17Z"/><path class="cls-2" d="M207.88,54.11a64.34,64.34,0,0,0-7.52-.45H171.63a37.22,37.22,0,0,0-34.48,23.23,37.26,37.26,0,0,0,34.53,23.28h0A37.42,37.42,0,0,1,209,137.6v46a65.22,65.22,0,0,0-1.08-129.44Z"/><path class="cls-2" d="M146.27,126.74a2.93,2.93,0,0,1-2.06-.85,13,13,0,0,1,0-18.32,2.91,2.91,0,0,1,4.12,4.12,7.13,7.13,0,0,0,0,10.08,2.91,2.91,0,0,1-2.06,5Z"/><path class="cls-2" d="M146.27,159a2.89,2.89,0,0,1-2.06-.85,13,13,0,0,1,0-18.31,2.91,2.91,0,1,1,4.12,4.11,7.13,7.13,0,0,0,0,10.08,2.91,2.91,0,0,1-2.06,5Z"/><path class="cls-2" d="M146.27,191.19a2.9,2.9,0,0,1-2.06-.86,13,13,0,0,1,0-18.31,2.91,2.91,0,1,1,4.12,4.12,7.13,7.13,0,0,0,0,10.08,2.92,2.92,0,0,1-2.06,5Z"/><path class="cls-2" d="M161.06,142.85A2.89,2.89,0,0,1,159,142a13,13,0,0,1,0-18.32,2.91,2.91,0,0,1,4.12,4.12,7.13,7.13,0,0,0,0,10.08,2.91,2.91,0,0,1-2.06,5Z"/><path class="cls-2" d="M161.06,175.07a2.89,2.89,0,0,1-2.06-.85,13,13,0,0,1,0-18.31,2.91,2.91,0,1,1,4.12,4.11,7.13,7.13,0,0,0,0,10.08,2.91,2.91,0,0,1-2.06,5Z"/></svg>