<svg id="Layer_1" data-name="Layer 1" xmlns="http://www.w3.org/2000/svg" viewBox="0 0 821 383"><defs><style>.cls-1{fill:#031316;}</style></defs><path class="cls-1" d="M381.62,155A25.37,25.37,0,0,1,371,165q-7.15,3.83-17.75,3.82H340.2V199.9H319.11V113.35h34.16q10.35,0,17.51,3.57a24.64,24.64,0,0,1,10.72,9.87,28.7,28.7,0,0,1,3.58,14.42A27.88,27.88,0,0,1,381.62,155Zm-20.95-5.73q3-2.83,2.95-8t-2.95-8q-3-2.83-9-2.84H340.2v21.7h11.46Q357.71,152.06,360.67,149.23Z"/><path class="cls-1" d="M418.22,113.35V199.9H397.13V113.35Z"/><path class="cls-1" d="M436.92,133.63A39.63,39.63,0,0,1,452.39,118a44.94,44.94,0,0,1,22.5-5.61q15.42,0,26.39,8.14A39.05,39.05,0,0,1,516,142.69H492.77a18.79,18.79,0,0,0-7.33-8.26,20.67,20.67,0,0,0-10.79-2.83q-9.75,0-15.78,6.78t-6.05,18.12q0,11.35,6.05,18.13t15.78,6.78a20.67,20.67,0,0,0,10.79-2.84,18.74,18.74,0,0,0,7.33-8.26H516a38.77,38.77,0,0,1-14.67,22.13q-11,8.09-26.39,8.08a44.94,44.94,0,0,1-22.5-5.61,39.74,39.74,0,0,1-15.47-15.6,46.14,46.14,0,0,1-5.55-22.81A46.51,46.51,0,0,1,436.92,133.63Z"/><path class="cls-1" d="M579.14,199.9,550,161.68V199.9H529V113.35H550v38l28.85-38h24.78l-33.53,42.41,34.77,44.14Z"/><path class="cls-1" d="M638.69,183.63h27.62V199.9h-48.7V113.35h21.08Z"/><path class="cls-1" d="M700.14,130.24v17.51h28.24V164H700.14v19h31.94V199.9h-53V113.35h53v16.89Z"/><path class="cls-1" d="M328.44,237V247.6h18.65v7.48H328.44v14.68h-9.33V229.47h30.46V237Z"/><path class="cls-1" d="M380.5,229.47h9.33v40.29H380.5Z"/><path class="cls-1" d="M460.78,229.47v40.29h-7.65L433,245.3v24.46h-9.21V229.47h7.72l20,24.46V229.47Z"/><path class="cls-1" d="M521.54,261.13H502.83l-3.57,8.63h-9.55l18-40.29h9.21l18,40.29h-9.79Zm-2.93-7.08-6.39-15.43-6.39,15.43Z"/><path class="cls-1" d="M600.72,229.47v40.29h-7.65L573,245.3v24.46h-9.21V229.47h7.71l20,24.46V229.47Z"/><path class="cls-1" d="M632.32,249.61c0-12.14,9.33-20.83,21.88-20.83,7,0,12.77,2.53,16.57,7.14l-6,5.52a13,13,0,0,0-10.13-4.72c-7.55,0-12.9,5.3-12.9,12.89s5.35,12.9,12.9,12.9a12.85,12.85,0,0,0,10.13-4.78l6,5.53c-3.8,4.66-9.61,7.19-16.63,7.19C641.65,270.45,632.32,261.76,632.32,249.61Z"/><path class="cls-1" d="M732.36,262.28v7.48h-31.2V229.47h30.45V237H710.42v8.75h18.71V253H710.42v9.33Z"/><path class="cls-1" d="M269.52,160.24c0-46.1-34.22-84.82-79.6-90.08a89.93,89.93,0,0,0-10.35-.61H141.32a52.45,52.45,0,0,0-48.71,33h0l-.07.18-.48,1.18,0,0a53.24,53.24,0,0,0-3.43,18.75V260.28c0,29.32,23.66,53.17,52.75,53.17s52.74-23.85,52.74-53.17V249.7C237.29,242.61,269.52,204.64,269.52,160.24Zm-81.63,100c0,25.85-20.86,46.89-46.5,46.89a46.75,46.75,0,0,1-46.51-46.89V122.66a46.71,46.71,0,0,1,1.17-10.43,52.44,52.44,0,0,0,4,5.83c.2.27.43.51.64.78.54.66,1.09,1.32,1.66,2,.28.32.58.62.87.93.52.55,1,1.11,1.59,1.64.33.32.67.62,1,.94.53.49,1.07,1,1.62,1.45l1.1.9c.55.44,1.11.88,1.67,1.3l1.18.84c.57.4,1.15.79,1.75,1.17.4.26.81.52,1.22.76.6.37,1.22.72,1.84,1.06l1.25.67c.64.33,1.3.64,2,.94.42.19.83.39,1.25.57.7.3,1.41.58,2.12.85.4.15.79.31,1.19.45.81.29,1.64.54,2.47.79.31.09.61.2.92.28,1.16.32,2.32.6,3.5.85l.36.06c1.06.21,2.12.39,3.19.53l1.21.13c.8.08,1.6.17,2.41.22l.33,0,2.88.1h.22c24.8.13,45.13,19.92,46.41,44.61v.07C187.87,183.73,187.89,260.28,187.89,260.28Z"/><path class="cls-1" d="M109.63,170.77a3.87,3.87,0,0,1-2.74-1.15,17.5,17.5,0,0,1,0-24.58,3.86,3.86,0,0,1,5.48,0,3.92,3.92,0,0,1,0,5.53,9.65,9.65,0,0,0,0,13.53,3.91,3.91,0,0,1,0,5.52A3.84,3.84,0,0,1,109.63,170.77Z"/><path class="cls-1" d="M109.63,214a3.86,3.86,0,0,1-2.74-1.14,17.5,17.5,0,0,1,0-24.58,3.85,3.85,0,0,1,5.48,0,3.92,3.92,0,0,1,0,5.53,9.64,9.64,0,0,0,0,13.52,3.92,3.92,0,0,1,0,5.53A3.83,3.83,0,0,1,109.63,214Z"/><path class="cls-1" d="M109.63,257.26a3.86,3.86,0,0,1-2.74-1.14,17.5,17.5,0,0,1,0-24.58,3.85,3.85,0,0,1,5.48,0,3.91,3.91,0,0,1,0,5.52,9.65,9.65,0,0,0,0,13.53,3.92,3.92,0,0,1,0,5.53A3.83,3.83,0,0,1,109.63,257.26Z"/><path class="cls-1" d="M129.32,192.39a3.86,3.86,0,0,1-2.74-1.14,17.5,17.5,0,0,1,0-24.58,3.86,3.86,0,0,1,5.49,0,3.93,3.93,0,0,1,0,5.52,9.63,9.63,0,0,0,0,13.53,3.94,3.94,0,0,1,0,5.53A3.87,3.87,0,0,1,129.32,192.39Z"/><path class="cls-1" d="M129.32,235.64a3.83,3.83,0,0,1-2.74-1.15,17.5,17.5,0,0,1,0-24.58,3.87,3.87,0,0,1,5.49,0,3.94,3.94,0,0,1,0,5.53,9.63,9.63,0,0,0,0,13.53,3.93,3.93,0,0,1,0,5.52A3.84,3.84,0,0,1,129.32,235.64Z"/></svg>