<svg id="Layer_1" data-name="Layer 1" xmlns="http://www.w3.org/2000/svg" viewBox="0 0 400 429"><defs><style>.cls-1{fill:#031316;}</style></defs><path class="cls-1" d="M95.54,291.45a18.34,18.34,0,0,1-7.69,7.28A27,27,0,0,1,75,301.5H65.51V324H50.23V261.29H75a28.11,28.11,0,0,1,12.69,2.59A17.82,17.82,0,0,1,95.45,271,20.74,20.74,0,0,1,98,281.48,20.19,20.19,0,0,1,95.54,291.45Zm-15.19-4.16a9,9,0,0,0,0-11.62c-1.43-1.36-3.61-2.05-6.53-2.05H65.51v15.73h8.31C76.74,289.35,78.92,288.67,80.35,287.29Z"/><path class="cls-1" d="M122.06,261.29V324H106.78V261.29Z"/><path class="cls-1" d="M135.62,276a28.69,28.69,0,0,1,11.22-11.35,32.55,32.55,0,0,1,16.31-4.07q11.16,0,19.12,5.9a28.29,28.29,0,0,1,10.64,16.09h-16.8a13.66,13.66,0,0,0-5.32-6,15,15,0,0,0-7.82-2.06,14.59,14.59,0,0,0-11.44,4.92q-4.38,4.92-4.38,13.14t4.38,13.13A14.59,14.59,0,0,0,163,310.62a14.88,14.88,0,0,0,7.82-2.06,13.58,13.58,0,0,0,5.32-6h16.8a28.1,28.1,0,0,1-10.64,16q-8,5.85-19.12,5.85a32.54,32.54,0,0,1-16.31-4.06,28.78,28.78,0,0,1-11.22-11.31,36.1,36.1,0,0,1,0-33.11Z"/><path class="cls-1" d="M238.71,324l-21.09-27.71V324H202.34V261.29h15.28v27.52l20.91-27.52h18L232.19,292l25.2,32Z"/><path class="cls-1" d="M281.88,312.23h20V324H266.6V261.29h15.28Z"/><path class="cls-1" d="M326.42,273.53v12.69h20.47V298H326.42v13.76h23.15V324H311.14V261.29h38.43v12.24Z"/><path class="cls-1" d="M57,350.88v7.72H70.51V364H57v10.64H50.23V345.46H72.3v5.42Z"/><path class="cls-1" d="M94.73,345.46h6.76v29.21H94.73Z"/><path class="cls-1" d="M152.92,345.46v29.21h-5.55L132.8,356.93v17.74h-6.67V345.46h5.59l14.52,17.73V345.46Z"/><path class="cls-1" d="M197,368.41H183.4l-2.59,6.26h-6.92l13-29.21h6.68l13.06,29.21h-7.09Zm-2.13-5.14-4.63-11.18-4.63,11.18Z"/><path class="cls-1" d="M254.36,345.46v29.21h-5.55l-14.57-17.74v17.74h-6.67V345.46h5.59l14.52,17.73V345.46Z"/><path class="cls-1" d="M277.26,360.06c0-8.8,6.76-15.1,15.86-15.1,5.05,0,9.26,1.83,12,5.17l-4.34,4a9.41,9.41,0,0,0-7.35-3.43,9.35,9.35,0,1,0,0,18.7A9.35,9.35,0,0,0,300.8,366l4.34,4c-2.76,3.38-7,5.22-12.06,5.22C284,375.17,277.26,368.87,277.26,360.06Z"/><path class="cls-1" d="M349.77,369.24v5.43H327.16V345.46h22.07v5.42H333.88v6.34h13.56v5.26H333.88v6.76Z"/><path class="cls-1" d="M266,120c0-33.64-25-61.9-58.09-65.74a65.44,65.44,0,0,0-7.56-.45H172.44a38.29,38.29,0,0,0-35.55,24.06h0l-.06.13-.34.86v0A38.84,38.84,0,0,0,134,92.59V193a38.49,38.49,0,1,0,77,0v-7.72C242.48,180.13,266,152.43,266,120Zm-59.57,73a33.94,33.94,0,1,1-67.88,0V92.59a34.09,34.09,0,0,1,.86-7.61,37.93,37.93,0,0,0,2.89,4.26c.15.19.31.37.47.56.39.49.79,1,1.21,1.44.2.23.42.45.63.67.39.41.77.81,1.17,1.2.24.24.49.46.73.69.39.36.78.71,1.18,1l.81.66c.4.33.8.64,1.22.95l.85.61c.42.3.85.58,1.28.86l.89.56c.45.26.89.52,1.35.77l.91.49c.47.24.95.46,1.42.68.31.14.61.29.92.42.51.22,1,.42,1.54.62.29.11.58.23.87.33.59.21,1.2.39,1.8.57.23.07.45.15.68.21.84.23,1.69.44,2.55.62l.26,0c.77.15,1.55.28,2.33.39.29,0,.59.06.89.09.58.07,1.16.13,1.75.17l.24,0,2.1.07h.16a34.29,34.29,0,0,1,33.87,32.56v0C206.42,137.17,206.43,193,206.43,193Z"/><path class="cls-1" d="M149.32,127.7a2.82,2.82,0,0,1-2-.83,12.77,12.77,0,0,1,0-17.94,2.82,2.82,0,0,1,4,0,2.87,2.87,0,0,1,0,4,7,7,0,0,0,0,9.87,2.89,2.89,0,0,1,0,4A2.83,2.83,0,0,1,149.32,127.7Z"/><path class="cls-1" d="M149.32,159.26a2.78,2.78,0,0,1-2-.83,12.77,12.77,0,0,1,0-17.94,2.82,2.82,0,0,1,4,0,2.87,2.87,0,0,1,0,4,7,7,0,0,0,0,9.88,2.87,2.87,0,0,1,0,4A2.79,2.79,0,0,1,149.32,159.26Z"/><path class="cls-1" d="M149.32,190.83a2.79,2.79,0,0,1-2-.84,12.77,12.77,0,0,1,0-17.94,2.82,2.82,0,0,1,4,0,2.89,2.89,0,0,1,0,4,7,7,0,0,0,0,9.87,2.87,2.87,0,0,1,0,4A2.8,2.8,0,0,1,149.32,190.83Z"/><path class="cls-1" d="M163.69,143.48a2.78,2.78,0,0,1-2-.83,12.77,12.77,0,0,1,0-17.94,2.82,2.82,0,0,1,4,0,2.87,2.87,0,0,1,0,4,7,7,0,0,0,0,9.88,2.87,2.87,0,0,1,0,4A2.79,2.79,0,0,1,163.69,143.48Z"/><path class="cls-1" d="M163.69,175.05a2.79,2.79,0,0,1-2-.84,12.77,12.77,0,0,1,0-17.94,2.82,2.82,0,0,1,4,0,2.89,2.89,0,0,1,0,4,7,7,0,0,0,0,9.87,2.87,2.87,0,0,1,0,4A2.8,2.8,0,0,1,163.69,175.05Z"/></svg>