<svg id="Layer_1" data-name="Layer 1" xmlns="http://www.w3.org/2000/svg" viewBox="0 0 400 429"><defs><style>.cls-1{fill:#031316;}.cls-2{fill:#48c148;}.cls-3{fill:#0e560e;}</style></defs><path class="cls-1" d="M95.54,291.51a18.42,18.42,0,0,1-7.69,7.29A27,27,0,0,1,75,301.57H65.51v22.52H50.23V261.35H75a28.24,28.24,0,0,1,12.69,2.59,17.82,17.82,0,0,1,7.78,7.15A20.78,20.78,0,0,1,98,281.55,20.15,20.15,0,0,1,95.54,291.51Zm-15.19-4.15a9,9,0,0,0,0-11.62q-2.14-2.06-6.53-2.06H65.51v15.73h8.31Q78.2,289.41,80.35,287.36Z"/><path class="cls-1" d="M122.06,261.35v62.74H106.78V261.35Z"/><path class="cls-1" d="M135.62,276.05a28.75,28.75,0,0,1,11.22-11.35,32.54,32.54,0,0,1,16.31-4.06q11.16,0,19.12,5.89a28.35,28.35,0,0,1,10.64,16.09h-16.8a13.66,13.66,0,0,0-5.32-6,15,15,0,0,0-7.82-2.05,14.61,14.61,0,0,0-11.44,4.91q-4.38,4.92-4.38,13.14t4.38,13.14A14.58,14.58,0,0,0,163,310.68a15,15,0,0,0,7.82-2.05,13.66,13.66,0,0,0,5.32-6h16.8a28.1,28.1,0,0,1-10.64,16q-8,5.86-19.12,5.86a32.55,32.55,0,0,1-16.31-4.07,28.78,28.78,0,0,1-11.22-11.31,36.1,36.1,0,0,1,0-33.11Z"/><path class="cls-1" d="M238.71,324.09l-21.09-27.71v27.71H202.34V261.35h15.28v27.53l20.91-27.53h18l-24.3,30.75,25.2,32Z"/><path class="cls-1" d="M281.88,312.29h20v11.8H266.6V261.35h15.28Z"/><path class="cls-1" d="M326.42,273.59v12.7h20.47v11.79H326.42v13.77h23.15v12.24H311.14V261.35h38.43v12.24Z"/><path class="cls-2" d="M57,351v7.72H70.51v5.42H57v10.64H50.23V345.52H72.3V351Z"/><path class="cls-2" d="M94.73,345.52h6.76v29.21H94.73Z"/><path class="cls-2" d="M152.92,345.52v29.21h-5.55L132.8,357v17.73h-6.67V345.52h5.59l14.52,17.74V345.52Z"/><path class="cls-2" d="M197,368.47H183.4l-2.59,6.26h-6.92l13-29.21h6.68l13.06,29.21h-7.09Zm-2.13-5.13-4.63-11.18-4.63,11.18Z"/><path class="cls-2" d="M254.36,345.52v29.21h-5.55L234.24,357v17.73h-6.67V345.52h5.59l14.52,17.74V345.52Z"/><path class="cls-2" d="M277.26,360.13c0-8.81,6.76-15.11,15.86-15.11,5.05,0,9.26,1.84,12,5.18l-4.34,4a9.43,9.43,0,0,0-7.35-3.42,9.35,9.35,0,1,0,0,18.69A9.35,9.35,0,0,0,300.8,366l4.34,4c-2.76,3.38-7,5.21-12.06,5.21C284,375.23,277.26,368.93,277.26,360.13Z"/><path class="cls-2" d="M349.77,369.31v5.42H327.16V345.52h22.07V351H333.88v6.34h13.56v5.26H333.88v6.76Z"/><path class="cls-3" d="M171.55,100.25h.15A37.25,37.25,0,0,1,137.19,77a37,37,0,0,0-2.74,14V193.45A37.25,37.25,0,0,0,171.7,230.7h0A37.26,37.26,0,0,0,209,193.45v-55.8A37.4,37.4,0,0,0,171.55,100.25Z"/><path class="cls-2" d="M207.87,54.21a66.43,66.43,0,0,0-7.51-.44H171.65A37.2,37.2,0,0,0,137.19,77a37.25,37.25,0,0,0,34.51,23.26h0A37.41,37.41,0,0,1,209,137.65v45.92a65.18,65.18,0,0,0-1.09-129.36Z"/><path class="cls-2" d="M146.3,126.8a2.91,2.91,0,0,1-2.05-.85,13,13,0,0,1,0-18.31,2.91,2.91,0,0,1,4.11,4.12,7.12,7.12,0,0,0,0,10.07,2.91,2.91,0,0,1-2.06,5Z"/><path class="cls-2" d="M146.3,159a2.87,2.87,0,0,1-2.05-.85,13,13,0,0,1,0-18.3,2.91,2.91,0,0,1,4.11,4.11,7.12,7.12,0,0,0,0,10.07,2.91,2.91,0,0,1-2.06,5Z"/><path class="cls-2" d="M146.3,191.2a2.87,2.87,0,0,1-2.05-.85,13,13,0,0,1,0-18.3,2.91,2.91,0,0,1,4.11,4.11,7.13,7.13,0,0,0,0,10.08,2.91,2.91,0,0,1-2.06,5Z"/><path class="cls-2" d="M161.09,142.9a2.93,2.93,0,0,1-2.06-.85,13,13,0,0,1,0-18.31,2.91,2.91,0,0,1,4.11,4.12,7.14,7.14,0,0,0,0,10.07,2.91,2.91,0,0,1-2,5Z"/><path class="cls-2" d="M161.09,175.1a2.89,2.89,0,0,1-2.06-.85,13,13,0,0,1,0-18.3,2.91,2.91,0,0,1,4.11,4.11,7.14,7.14,0,0,0,0,10.07,2.91,2.91,0,0,1-2,5Z"/></svg>